Coordinates
version=1
nRows=12
nColumns=46
inDegrees=yes

Units are S.I. units (second, meters, Newtons, ...)
Angles are in degrees.

endheader
time	pelvis_tilt	pelvis_list	pelvis_rotation	pelvis_tx	pelvis_ty	pelvis_tz	bb_angle	bb_tx	bb_ty	bb_tz	hip_flexion_r	hip_adduction_r	hip_rotation_r	knee_angle_r	knee_angle_r_beta	ankle_angle_r	subtalar_angle_r	mtp_angle_r	crank_angle_r	hip_flexion_l	hip_adduction_l	hip_rotation_l	knee_angle_l	knee_angle_l_beta	ankle_angle_l	subtalar_angle_l	mtp_angle_l	crank_angle_l	lumbar_extension	lumbar_bending	lumbar_rotation	arm_flex_r	arm_add_r	arm_rot_r	elbow_flex_r	pro_sup_r	wrist_flex_r	wrist_dev_r	arm_flex_l	arm_add_l	arm_rot_l	elbow_flex_l	pro_sup_l	wrist_flex_l	wrist_dev_l
      5.00000000	    -23.04466822	    -12.30673414	     -2.24750731	      0.40851096	      1.13664248	     -0.20942266	      0.00000000	      0.50000000	      0.00000000	      0.25000000	     66.96210860	     10.49132603	     -3.01938707	    106.08619139	      1.85155333	     -5.91367635	    -12.20509799	      0.00000000	      0.00000000	     31.81757371	    -17.77331503	      4.79174841	     23.46143512	      0.40947929	     -8.55694134	     -0.85859477	      0.00000000	      0.00000000	    -50.15392220	      5.46802884	     -2.81659850	     70.67306019	     -1.82402271	     63.49124923	     30.74947179	     58.04128776	      0.00000000	      0.00000000	     43.69882205	    -37.92976978	     23.79084899	     75.16818292	     53.45420237	      0.00000000	      0.00000000
      5.00500000	    -23.04823910	    -12.66235437	     -3.30960868	      0.40880741	      1.13697060	     -0.21030103	      0.00000000	      0.50000000	      0.00000000	      0.25000000	     68.15832470	     11.03316814	     -3.11497720	    106.88800352	      1.86554759	     -5.15479084	    -11.74562949	      0.00000000	      0.00000000	     30.27212639	    -18.70803538	      3.45673944	     22.24125451	      0.38818312	     -9.45807954	      0.08100370	      0.00000000	      0.00000000	    -49.95810401	      5.90705729	     -1.52056389	     71.66782406	     -1.77154737	     66.81307996	     29.17448173	     58.43566533	      0.00000000	      0.00000000	     44.43771150	    -37.22834713	     25.07646357	     72.75231528	     53.22328363	      0.00000000	      0.00000000
      5.01000000	    -23.16168158	    -12.93834820	     -4.14082897	      0.40902005	      1.13754579	     -0.21141431	      0.00000000	      0.50000000	      0.00000000	      0.25000000	     69.40599437	     11.29107119	     -3.31328336	    107.46020065	      1.87553432	     -4.80791865	    -11.13937222	      0.00000000	      0.00000000	     28.92443800	    -19.39161574	      2.42010648	     21.03627424	      0.36715225	    -10.62935953	      0.88494263	      0.00000000	      0.00000000	    -49.86311086	      6.38310713	     -0.83450487	     71.97797308	     -1.64992909	     66.89810159	     29.11848333	     58.43507338	      0.00000000	      0.00000000	     44.15338590	    -37.32187631	     25.29037689	     72.26230704	     53.17748749	      0.00000000	      0.00000000
      5.01500000	    -22.92998938	    -12.96819939	     -5.32461671	      0.41012297	      1.13926018	     -0.21233397	      0.00000000	      0.50000000	      0.00000000	      0.25000000	     70.07107166	     11.81154703	     -3.04403715	    107.83318357	      1.88204410	     -3.95794584	    -10.18477162	      0.00000000	      0.00000000	     26.86705197	    -20.01522192	      0.26295147	     19.70693545	      0.34395091	    -11.69342782	      2.08496271	      0.00000000	      0.00000000	    -49.97277255	      6.15546415	      0.77881506	     72.41093261	     -2.08507181	     68.68279051	     27.97154838	     58.61686175	      0.00000000	      0.00000000	     46.31535781	    -35.51442014	     27.71482014	     68.51369516	     52.82473107	      0.00000000	      0.00000000
      5.02000000	    -23.07335805	    -13.14270395	     -6.05026821	      0.41052997	      1.14064756	     -0.21380607	      0.00000000	      0.50000000	      0.00000000	      0.25000000	     71.09433311	     11.95251128	     -3.17177331	    107.99473740	      1.88486374	     -3.42140753	     -9.82482870	      0.00000000	      0.00000000	     25.64480489	    -20.45576169	     -0.82651437	     18.66645014	      0.32579101	    -13.10907503	      2.82533215	      0.00000000	      0.00000000	    -49.97920663	      6.60862266	      1.40601714	     72.52643871	     -1.81803555	     68.93096997	     28.23589070	     58.70016708	      0.00000000	      0.00000000	     46.03115852	    -35.61576309	     27.85874075	     68.07745845	     52.78007103	      0.00000000	      0.00000000
      5.02500000	    -22.72264360	    -13.06735434	     -6.90741114	      0.41157107	      1.14317571	     -0.21511916	      0.00000000	      0.50000000	      0.00000000	      0.25000000	     71.44429813	     12.18790094	     -2.87991283	    107.99155226	      1.88480815	     -2.70309051	     -9.02506870	      0.00000000	      0.00000000	     23.72968746	    -20.71419824	     -2.78193270	     17.61506650	      0.30744091	    -14.42031353	      3.88766322	      0.00000000	      0.00000000	    -50.36661410	      6.60897646	      2.55673090	     73.28394893	     -2.46025098	     71.37204686	     27.92468063	     59.20126974	      0.00000000	      0.00000000	     47.26343561	    -34.24155019	     28.93045176	     65.27411828	     52.48608724	      0.00000000	      0.00000000
      5.03000000	    -22.58898204	    -13.00668965	     -7.57144805	      0.41245376	      1.14579340	     -0.21673775	      0.00000000	      0.50000000	      0.00000000	      0.25000000	     71.90707945	     12.20494995	     -2.71001793	    107.76523544	      1.88085818	     -2.03706855	     -8.40502426	      0.00000000	      0.00000000	     22.29778468	    -20.82211084	     -4.30830362	     16.77529031	      0.29278405	    -15.96411176	      4.51532685	      0.00000000	      0.00000000	    -50.73363262	      6.83227503	      2.98440239	     73.76160095	     -2.39205475	     71.38930376	     27.61364604	     59.16079025	      0.00000000	      0.00000000	     47.06334418	    -34.11215883	     29.55488861	     64.86420810	     52.50561999	      0.00000000	      0.00000000
      5.03500000	    -22.46654975	    -12.85019286	     -7.98741299	      0.41296077	      1.14855077	     -0.21831510	      0.00000000	      0.50000000	      0.00000000	      0.25000000	     72.30870661	     12.05693198	     -2.50158525	    107.40616964	      1.87459130	     -1.17638543	     -7.69709404	      0.00000000	      0.00000000	     21.19821251	    -20.71184013	     -5.49219084	     16.25695753	      0.28373744	    -17.51064836	      4.88210430	      0.00000000	      0.00000000	    -50.96523393	      7.06368026	      3.62075881	     74.12199993	     -2.54033545	     72.65292714	     27.50892197	     59.46278464	      0.00000000	      0.00000000	     48.24551975	    -33.06408259	     30.84730601	     62.38954879	     52.29965387	      0.00000000	      0.00000000
      5.04000000	    -22.42038268	    -12.60639612	     -8.44835439	      0.41336871	      1.15146411	     -0.21987853	      0.00000000	      0.50000000	      0.00000000	      0.25000000	     72.66299242	     11.95069939	     -2.18501800	    106.83760513	      1.86466797	     -0.40209639	     -7.20999799	      0.00000000	      0.00000000	     20.36933904	    -20.51625558	     -6.69926902	     16.02506472	      0.27969014	    -19.14325050	      4.98090703	      0.00000000	      0.00000000	    -51.27150431	      7.22518302	      3.75702022	     74.46536231	     -2.41433361	     72.69935475	     27.71009606	     59.50247548	      0.00000000	      0.00000000	     48.25876599	    -32.88743874	     30.84786639	     61.75759627	     52.21371060	      0.00000000	      0.00000000
      5.04500000	    -22.30923671	    -12.31096281	     -8.77441797	      0.41370026	      1.15472729	     -0.22142281	      0.00000000	      0.50000000	      0.00000000	      0.25000000	     72.79870398	     11.72500101	     -1.81389563	    106.14862987	      1.85264309	      0.93201850	     -6.25484289	      0.00000000	      0.00000000	     19.70897199	    -20.22538884	     -7.69640506	     16.08866655	      0.28080020	    -20.68518740	      4.92337361	      0.00000000	      0.00000000	    -51.67182402	      7.35483403	      3.86743201	     74.87910883	     -2.48465665	     72.63138872	     27.87079861	     59.51698110	      0.00000000	      0.00000000	     48.50314412	    -32.29055624	     30.53475789	     60.75119363	     52.03827083	      0.00000000	      0.00000000
      5.05000000	    -22.32998436	    -12.00642854	     -9.08250951	      0.41379725	      1.15801334	     -0.22295848	      0.00000000	      0.50000000	      0.00000000	      0.25000000	     72.93212664	     11.54776627	     -1.40358788	    105.26567616	      1.83723264	      2.26088286	     -5.46162822	      0.00000000	      0.00000000	     19.42789727	    -19.92985019	     -8.45787139	     16.51295659	      0.28820546	    -22.11894083	      4.52017775	      0.00000000	      0.00000000	    -51.89525961	      7.42914153	      4.27698480	     75.03554899	     -3.15825502	     72.06635941	     28.69815623	     59.52928071	      0.00000000	      0.00000000	     49.24316756	    -30.69111191	     29.18263411	     58.61854454	     51.62111098	      0.00000000	      0.00000000
      5.05500000	    -22.46568287	    -11.69223683	     -9.46388648	      0.41364583	      1.16115152	     -0.22408166	      0.00000000	      0.50000000	      0.00000000	      0.25000000	     73.08449442	     11.50413726	     -0.98777870	    104.22202725	      1.81901753	      3.62586250	     -4.81810878	      0.00000000	      0.00000000	     19.50456162	    -19.72402157	     -9.12125122	     17.41289090	      0.30391228	    -23.20132436	      4.06793409	      0.00000000	      0.00000000	    -52.16426290	      7.44423686	      4.28433934	     75.37545111	     -3.22146568	     71.78359651	     29.22530523	     59.53368336	      0.00000000	      0.00000000	     49.28873954	    -30.60857159	     29.02255811	     58.35463710	     51.58196726	      0.00000000	      0.00000000
